/* XPM */
static char *telestai16[] = {
/* columns rows colors chars-per-pixel */
"16 14 2 1 ",
"  c #9F9874",
". c None",
/* pixels */
"................",
"................",
"..            ..",
"....        ....",
"....        ....",
"....... ........",
".... .  . . ....",
".... .  . . ....",
".... .  . . ....",
"......  . ......",
"......  . ......",
"....... ........",
"................",
"................"
};
