/* XPM */
static char *telestai64[] = {
/* columns rows colors chars-per-pixel */
"64 55 2 1 ",
"  c #9F9874",
". c None",
/* pixels */
"................................................................",
"................................................................",
"................................................................",
"................................................................",
"................................................................",
"................................................................",
"................................................................",
".......                                                  .......",
".......                                                  .......",
".......                                                  .......",
".......                                                  .......",
"................................................................",
"................................................................",
"................................................................",
".............                                     ..............",
".............                                     ..............",
".............                                     ..............",
"..............                                    ..............",
"..............................    ..............................",
"..............................    ..............................",
"..............................    ..............................",
"................   ....    ...    ...    ...    ................",
"................    ...    ...    ...    ...    ................",
"................    ...    ...    ...    ...    ................",
"................    ...    ...    ...    ...    ................",
"................    ...    ...    ...    ...    ................",
"................    ...    ...    ...    ...    ................",
"................    ...    ...    ...    ...    ................",
"................    ...    ...    ...    ...    ................",
"................    ...    ...    ...    ...    ................",
"................    ...    ...    ...    ...    ................",
"................    ...    ...    ...    ...    ................",
"................    ...    ...    ...    ...    ................",
"................    ...    ...    ...    ...    ................",
"................    ...    ...    ...    ...    ................",
"................    ...    ...    ...    ...    ................",
"................   ....    ...    ...    ...    ................",
".......................    ...    ...    .......................",
".......................    ...    ...    .......................",
".......................    ...    ...    .......................",
".......................    ...    ...    .......................",
".......................    ...    ...    .......................",
".......................    ...    ...    .......................",
"..............................    ..............................",
"..............................    ..............................",
"..............................    ..............................",
"..............................    ..............................",
"..............................   ...............................",
"................................................................",
"................................................................",
"................................................................",
"................................................................",
"................................................................",
"................................................................",
"................................................................"
};
