/* XPM */
static char *telestai16[] = {
/* columns rows colors chars-per-pixel */
"16 16 113 2 ",
"   c #112E3F",
".  c #102F3F",
"X  c #112F3F",
"o  c #102E40",
"O  c #122F40",
"+  c #143243",
"@  c #193747",
"#  c #193748",
"$  c #1D3B4C",
"%  c #1D3B4D",
"&  c #1F3E4E",
"*  c #2A4654",
"=  c #284656",
"-  c #2C4654",
";  c #2F4858",
":  c #2F4D5C",
">  c #344C5B",
",  c #335162",
"<  c #335163",
"1  c #365264",
"2  c #4B6572",
"3  c #4D6470",
"4  c #4E6470",
"5  c #4C6978",
"6  c #516774",
"7  c #516873",
"8  c #516A77",
"9  c #566C77",
"0  c #506C7B",
"q  c #586D78",
"w  c #5A6F7C",
"e  c #5B707A",
"r  c #58707D",
"t  c #5C717D",
"y  c #5D727C",
"u  c #5D727D",
"i  c #5D727E",
"p  c #567282",
"a  c #567283",
"s  c #597584",
"d  c #597785",
"f  c #5E7B8A",
"g  c #647882",
"h  c #677B86",
"j  c #687C86",
"k  c #687C87",
"l  c #687D87",
"z  c #687B88",
"x  c #687D88",
"c  c #6D7F89",
"v  c #6D808A",
"b  c #70848D",
"n  c #698594",
"m  c #698694",
"M  c #6E8997",
"N  c #6F8A99",
"B  c #738691",
"V  c #748791",
"C  c #748692",
"Z  c #748891",
"A  c #748892",
"S  c #798B94",
"D  c #798A95",
"F  c #7B8E97",
"G  c #7E929B",
"H  c #7F9BA8",
"J  c #83969F",
"K  c #86969E",
"L  c #8898A0",
"P  c #8C9CA4",
"I  c #8F9EA7",
"U  c #86A4B2",
"Y  c #86A5B2",
"T  c #8EACB8",
"R  c #96A9B3",
"E  c #9AAEB8",
"W  c #A0B4BD",
"Q  c #A1B5BE",
"!  c #A2B5BE",
"~  c #A3B6BF",
"^  c #A3BECB",
"/  c #B5BFC3",
"(  c #A8C2CE",
")  c #B9C2C6",
"_  c #BDC7CB",
"`  c #ABC6D2",
"'  c #C1CACE",
"]  c #C2CACE",
"[  c #C3CDD0",
"{  c #C4CDD1",
"}  c #C6CFD2",
"|  c #C7D1D3",
" . c #C9D3D5",
".. c #CDD4D8",
"X. c #D0D8DB",
"o. c #D0D9DB",
"O. c #D1D9DC",
"+. c #D1DADC",
"@. c #D3DADC",
"#. c #D3DADD",
"$. c #D4DBDE",
"%. c #D7DEDF",
"&. c #D8DFE1",
"*. c #DAE0E2",
"=. c #EEF1F2",
"-. c #EFF3F3",
";. c #F4F8F8",
":. c #F5F8F8",
">. c #FAFBFB",
",. c #FCFEFE",
"<. c #FEFFFF",
"1. c #FFFFFF",
"2. c None",
/* pixels */
"2.2.2.2.2.2.2.2.2.2.2.2.2.2.2.2.",
"2.2.2.2.2.2.2.2.2.2.2.2.2.2.2.2.",
"2.2.2.2.2.- u D S t * 2.2.2.2.2.",
"2.2.2.2.e [ :.<.<.;.' 9 2.2.2.2.",
"2.2.2.y %.&.#.@.@.#.*.$.q 2.2.2.",
"2.2.> ..) 7 A C B V 6 ' } ; 2.2.",
"2.2.c ,./ 4 j l x z 3 _ >.g 2.2.",
"2.2.I 1.=.] w v b i | -.1.K 2.2.",
"2.2.F +.o.{ h L P k  .X.O.Z 2.2.",
"2.2.8 Q ! R r G J r E ~ W 2 2.2.",
"2.2., U ^ ` p n M s ( T Y : 2.2.",
"2.2.2.$ 1 H a m N 5 0 % & 2.2.2.",
"2.2.2.2.X # < d f = o O 2.2.2.2.",
"2.2.2.2.2.. + @ # +   2.2.2.2.2.",
"2.2.2.2.2.2.2.2.2.2.2.2.2.2.2.2.",
"2.2.2.2.2.2.2.2.2.2.2.2.2.2.2.2."
};
