/* XPM */
static char *telestai32[] = {
/* columns rows colors chars-per-pixel */
"32 32 101 2 ",
"   c #0E2B3C",
".  c #112E3E",
"X  c #11303F",
"o  c #0F2D41",
"O  c #112F41",
"+  c #133142",
"@  c #1A3646",
"#  c #193749",
"$  c #1E3A4B",
"%  c #223D4E",
"&  c #203E51",
"*  c #25414E",
"=  c #254252",
"-  c #2A4553",
";  c #2C4857",
":  c #2A4758",
">  c #2C4A5A",
",  c #334B5A",
"<  c #37515E",
"1  c #324F61",
"2  c #365464",
"3  c #3B5463",
"4  c #3E5A66",
"5  c #3B5969",
"6  c #415664",
"7  c #415965",
"8  c #445D6B",
"9  c #495F6E",
"0  c #41606E",
"q  c #49606C",
"w  c #466274",
"e  c #4B6473",
"r  c #4F6D7E",
"t  c #536A76",
"y  c #526D7C",
"u  c #5A707C",
"i  c #5B7582",
"p  c #5D7A89",
"a  c #647985",
"s  c #607C8C",
"d  c #65808D",
"f  c #73858D",
"g  c #668090",
"h  c #6C8A97",
"j  c #768892",
"k  c #7B8C94",
"l  c #88979F",
"z  c #8798A0",
"x  c #8C9CA4",
"c  c #819FAB",
"v  c #909EA6",
"b  c #8FA2A7",
"n  c #84A2AF",
"m  c #93A3AA",
"M  c #99A7AD",
"N  c #98A8AF",
"B  c #84A3B1",
"V  c #8EA7B4",
"C  c #8EAAB7",
"Z  c #91AAB6",
"A  c #98A9B0",
"S  c #93ADB9",
"D  c #A5AEB5",
"F  c #A6B3B7",
"G  c #A5B2B9",
"H  c #A8B4BB",
"J  c #ACBABE",
"K  c #97B6C3",
"L  c #AFBCC0",
"P  c #B2BFC4",
"I  c #A8C1CC",
"U  c #B4C0C5",
"Y  c #BAC4C9",
"T  c #BEC9CC",
"R  c #ACC6D2",
"E  c #ADC9D5",
"W  c #AECDD9",
"Q  c #B1CDD9",
"!  c #B2D0DC",
"~  c #B9D3DD",
"^  c #BDD5E0",
"/  c #BED8E3",
"(  c #C0CACD",
")  c #CBD3D6",
"_  c #C5D6DC",
"`  c #CFD8DA",
"'  c #D1D7D8",
"]  c #D3DCDE",
"[  c #D9DFDF",
"{  c #C0D7E1",
"}  c #C0D9E5",
"|  c #DCE4E5",
" . c #E0E5E6",
".. c #E0E7E9",
"X. c #E5EAEC",
"o. c #EBF1F4",
"O. c #F1F7F6",
"+. c #F2F7F8",
"@. c #F6F8F8",
"#. c #FDFEFE",
"$. c None",
/* pixels */
"$.$.$.$.$.$.$.$.$.$.$.$.$.$.$.$.$.$.$.$.$.$.$.$.$.$.$.$.$.$.$.$.",
"$.$.$.$.$.$.$.$.$.$.$.$.$.$.$.$.$.$.$.$.$.$.$.$.$.$.$.$.$.$.$.$.",
"$.$.$.$.$.$.$.$.$.$.$.$.$.$.$.$.$.$.$.$.$.$.$.$.$.$.$.$.$.$.$.$.",
"$.$.$.$.$.$.$.$.$.$.$.$.$.$.$.$.$.$.$.$.$.$.$.$.$.$.$.$.$.$.$.$.",
"$.$.$.$.$.$.$.$.$.$.$.$.  O @ % % @ +   $.$.$.$.$.$.$.$.$.$.$.$.",
"$.$.$.$.$.$.$.$.$.  . - a N Y ) ) Y A a ;   $.$.$.$.$.$.$.$.$.$.",
"$.$.$.$.$.$.$.$.  % k ] @.#.#.#.#.#.#.@.` j %   $.$.$.$.$.$.$.$.",
"$.$.$.$.$.$.$.  < U #.#.#.#.#.#.#.#.#.#.#.@.J ,   $.$.$.$.$.$.$.",
"$.$.$.$.$.$.  3 ) #.#.#.#.#.#.#.#.#.#.#.#.#.#.( , . $.$.$.$.$.$.",
"$.$.$.$.$.  - T #. .) ) ) ) ) ) ) ) ) ) ) ) X.#.P %   $.$.$.$.$.",
"$.$.$.$.$.O x #.#.k % % $ % % % % % % % % % v #.@.k O $.$.$.$.$.",
"$.$.$.$.  6 X.#.#.f * m G G G F G G G F x % l #.#.| ,   $.$.$.$.",
"$.$.$.$.. z #.#.#.f % M F H D F F H H H b % l #.#.#.k o $.$.$.$.",
"$.$.$.$.$ ( #.#.#.k @ % X @ % @ # # + # $ @ x #.#.#.J @ $.$.$.$.",
"$.$.$.$., | #.#.#.[ ( Y 9 < J < e L - i ( T | #.#.#.' * $.$.$.$.",
"$.$.$.  7 X.#.@.@.#.#.@.u 9 X.8 a .., k #.#.#.@.@.#.| , O $.$.$.",
"$.$.$.  4 X.o.+.O.o.+.o.t q X.8 a | , j +.+.+.o.+.+.| , + $.$.$.",
"$.$.$.  > N H F F F F D 6 q X.8 a | 1 t H G G G F F b * $.$.$.$.",
"$.$.$.$.* A I U U U U P 8 9 X.8 a  ., u P P P P P U v # $.$.$.$.",
"$.$.$.$.+ d C K Z Z Z V 2 4 _ 7 i _ : w C B K K Z S i + $.$.$.$.",
"$.$.$.$.  i W ! Q Q Q W 0 5 E 2 y R : i Q Q / ! ! ! 8 . $.$.$.$.",
"$.$.$.$.$.& k C C ^ / ~ w 5 E 2 y R : p ^ ^ k h K k # $.$.$.$.$.",
"$.$.$.$.$.O # # & g Q / w 4 W 2 y R - s P p # + & & O $.$.$.$.$.",
"$.$.$.$.$.$.+ + + + 8 S w 5 E 2 y R : 2 1 o o + + + $.$.$.$.$.$.",
"$.$.$.$.$.$.$.+ + + + = & 5 W 2 y E > . + + + + + $.$.$.$.$.$.$.",
"$.$.$.$.$.$.$.$.X + + O o 2 B > 8 B = X + + + + $.$.$.$.$.$.$.$.",
"$.$.$.$.$.$.$.$.$.X + + O + # + + # + + + . + $.$.$.$.$.$.$.$.$.",
"$.$.$.$.$.$.$.$.$.$.$.X X O O + + + + +   $.$.$.$.$.$.$.$.$.$.$.",
"$.$.$.$.$.$.$.$.$.$.$.$.$.$.  . o . $.$.$.$.$.$.$.$.$.$.$.$.$.$.",
"$.$.$.$.$.$.$.$.$.$.$.$.$.$.$.$.$.$.$.$.$.$.$.$.$.$.$.$.$.$.$.$.",
"$.$.$.$.$.$.$.$.$.$.$.$.$.$.$.$.$.$.$.$.$.$.$.$.$.$.$.$.$.$.$.$.",
"$.$.$.$.$.$.$.$.$.$.$.$.$.$.$.$.$.$.$.$.$.$.$.$.$.$.$.$.$.$.$.$."
};
