/* XPM */
static char *telestai32[] = {
/* columns rows colors chars-per-pixel */
"32 28 2 1 ",
"  c #9F9874",
". c None",
/* pixels */
"................................",
"................................",
"................................",
".... ...........................",
"...                          ...",
"....                        ....",
"................................",
".......                  .......",
".......                  .......",
"...............  ...............",
"...............  ...............",
"........  .  ..  .  ..  ........",
"........  .  ..  .  ..  ........",
"........  .  ..  .  ..  ........",
"........  .  ..  .  ..  ........",
"........  .  ..  .  ..  ........",
"........  .  ..  .  ..  ........",
"........  .  ..  .  ..  ........",
"........  .  ..  .  ..  ........",
"...........  ..  .  ............",
"...........  ..  .  ............",
"...........  ..  .. ............",
"...............  ...............",
"...............  ...............",
"................................",
"................................",
"................................",
"................................"
};
