/* XPM */
static char *telestai64[] = {
/* columns rows colors chars-per-pixel */
"64 64 167 2 ",
"   c #0C2634",
".  c #0C2836",
"X  c #0F2438",
"o  c #0E2C3C",
"O  c #102A36",
"+  c #112E3E",
"@  c #0E303E",
"#  c #12303E",
"$  c #19323D",
"%  c #0E2D41",
"&  c #112E41",
"*  c #0F3041",
"=  c #133142",
"-  c #1B3544",
";  c #1D3847",
":  c #133148",
">  c #1B3749",
",  c #1D3A4A",
"<  c #213945",
"1  c #223D4C",
"2  c #223F51",
"3  c #23404E",
"4  c #2C414C",
"5  c #244252",
"6  c #2A4453",
"7  c #2C4857",
"8  c #2F4D5F",
"9  c #344A55",
"0  c #334E5D",
"q  c #394F5B",
"w  c #34505E",
"e  c #3C525C",
"r  c #304F60",
"t  c #345262",
"y  c #3B5461",
"u  c #3E5866",
"i  c #3C5A68",
"p  c #41575E",
"a  c #425461",
"s  c #455965",
"d  c #485D67",
"f  c #445D69",
"g  c #42626F",
"h  c #4A626C",
"j  c #50656F",
"k  c #466373",
"l  c #4A6676",
"z  c #4E6C7B",
"x  c #546973",
"c  c #596C76",
"v  c #556D7D",
"b  c #5B6F7C",
"n  c #597077",
"m  c #54707C",
"M  c #5C717C",
"N  c #606F75",
"B  c #626D7B",
"V  c #62757D",
"C  c #677A7E",
"Z  c #547583",
"A  c #5C7683",
"S  c #5E7883",
"D  c #5B798B",
"F  c #617682",
"G  c #637984",
"H  c #6A7B84",
"J  c #607D8D",
"K  c #697F8A",
"L  c #6E838D",
"P  c #71818A",
"I  c #76898F",
"U  c #678191",
"Y  c #6A8593",
"T  c #6C8997",
"R  c #6C8998",
"E  c #798A92",
"W  c #738D9D",
"Q  c #71909E",
"!  c #7D909B",
"~  c #7693A2",
"^  c #7B9BA8",
"/  c #82929B",
"(  c #8A9A9E",
")  c #8599A1",
"_  c #8B9DA5",
"`  c #839DAD",
"'  c #929FA3",
"]  c #8FA0A3",
"[  c #86A1AE",
"{  c #98A3A7",
"}  c #93A5AB",
"|  c #99A6AE",
" . c #96A8AC",
".. c #9AA8AE",
"X. c #85A1B0",
"o. c #8CA7B5",
"O. c #8AABB6",
"+. c #94A8B1",
"@. c #9BABB1",
"#. c #90ABB8",
"$. c #92B1BF",
"%. c #9BB2BB",
"&. c #A0ABAE",
"*. c #A7B3B7",
"=. c #A6B6BB",
"-. c #A9B6BC",
";. c #AFB9BD",
":. c #96B4C3",
">. c #9AB5C4",
",. c #9BB9C5",
"<. c #9EBBCA",
"1. c #AEBCC1",
"2. c #B1BEC3",
"3. c #A1C2CB",
"4. c #A9C2CD",
"5. c #B2C0C5",
"6. c #B2C1C8",
"7. c #BFC5CC",
"8. c #BCCACD",
"9. c #A5C3D1",
"0. c #ABC6D2",
"q. c #ACC9D5",
"w. c #ADCCD9",
"e. c #B0CBD6",
"r. c #BECCD1",
"t. c #B2CDDA",
"y. c #AFD0DB",
"u. c #B5D1DE",
"i. c #B9D3DE",
"p. c #B6D3E1",
"a. c #BAD6E2",
"s. c #BDD9E3",
"d. c #BDDCE8",
"f. c #C1CACD",
"g. c #C1CDD2",
"h. c #C5D3D4",
"j. c #CBD4D7",
"k. c #C5D5DC",
"l. c #CAD5D8",
"z. c #CADADF",
"x. c #D1DBDF",
"c. c #C0D6E2",
"v. c #C1DAE5",
"b. c #CBDDE6",
"n. c #C2DCE8",
"m. c #D5E1E3",
"M. c #DAE3E5",
"N. c #D3E4E9",
"B. c #DEE7E9",
"V. c #DEE9EB",
"C. c #DFEDF1",
"Z. c #E1E7EA",
"A. c #E2EBEC",
"S. c #E9EDED",
"D. c #E6F0EF",
"F. c #E5EDF0",
"G. c #E9EEF1",
"H. c #E7F0F1",
"J. c #EBF2F4",
"K. c #EDF7F8",
"L. c #EEF9F9",
"P. c #F4F8F7",
"I. c #FFFCF7",
"U. c #F1F7FA",
"Y. c #F5FAFA",
"T. c #FCFEFE",
"R. c None",
/* pixels */
"R.R.R.R.R.R.R.R.R.R.R.R.R.R.R.R.R.R.R.R.R.R.R.R.R.R.R.R.R.R.R.R.R.R.R.R.R.R.R.R.R.R.R.R.R.R.R.R.R.R.R.R.R.R.R.R.R.R.R.R.R.R.R.R.",
"R.R.R.R.R.R.R.R.R.R.R.R.R.R.R.R.R.R.R.R.R.R.R.R.R.R.R.R.R.R.R.R.R.R.R.R.R.R.R.R.R.R.R.R.R.R.R.R.R.R.R.R.R.R.R.R.R.R.R.R.R.R.R.R.",
"R.R.R.R.R.R.R.R.R.R.R.R.R.R.R.R.R.R.R.R.R.R.R.R.R.R.R.R.R.R.R.R.R.R.R.R.R.R.R.R.R.R.R.R.R.R.R.R.R.R.R.R.R.R.R.R.R.R.R.R.R.R.R.R.",
"R.R.R.R.R.R.R.R.R.R.R.R.R.R.R.R.R.R.R.R.R.R.R.R.R.R.R.R.R.R.R.R.R.R.R.R.R.R.R.R.R.R.R.R.R.R.R.R.R.R.R.R.R.R.R.R.R.R.R.R.R.R.R.R.",
"R.R.R.R.R.R.R.R.R.R.R.R.R.R.R.R.R.R.R.R.R.R.R.R.R.R.R.R.R.R.R.R.R.R.R.R.R.R.R.R.R.R.R.R.R.R.R.R.R.R.R.R.R.R.R.R.R.R.R.R.R.R.R.R.",
"R.R.R.R.R.R.R.R.R.R.R.R.R.R.R.R.R.R.R.R.R.R.R.R.R.R.R.R.R.R.R.R.R.R.R.R.R.R.R.R.R.R.R.R.R.R.R.R.R.R.R.R.R.R.R.R.R.R.R.R.R.R.R.R.",
"R.R.R.R.R.R.R.R.R.R.R.R.R.R.R.R.R.R.R.R.R.R.R.R.R.R.R.R.R.R.R.R.R.R.R.R.R.R.R.R.R.R.R.R.R.R.R.R.R.R.R.R.R.R.R.R.R.R.R.R.R.R.R.R.",
"R.R.R.R.R.R.R.R.R.R.R.R.R.R.R.R.R.R.R.R.R.R.R.R.R.R.R.R.R.o o o o o o R.R.R.R.R.R.R.R.R.R.R.R.R.R.R.R.R.R.R.R.R.R.R.R.R.R.R.R.R.",
"R.R.R.R.R.R.R.R.R.R.R.R.R.R.R.R.R.R.R.R.R.R.R.R.R.o o % & & & & + + + & + + o o R.R.R.R.R.R.R.R.R.R.R.R.R.R.R.R.R.R.R.R.R.R.R.R.",
"R.R.R.R.R.R.R.R.R.R.R.R.R.R.R.R.R.R.R.R.R.R.o + + + & % & & : - : - : + o + & = + . R.R.R.R.R.R.R.R.R.R.R.R.R.R.R.R.R.R.R.R.R.R.",
"R.R.R.R.R.R.R.R.R.R.R.R.R.R.R.R.R.R.R.R.o o & + = 4 f H / | 1.2.5.-.| / G f 5 : * @ # % R.R.R.R.R.R.R.R.R.R.R.R.R.R.R.R.R.R.R.R.",
"R.R.R.R.R.R.R.R.R.R.R.R.R.R.R.R.R.R.o & & o ; d _ r.V.K.T.T.T.T.T.T.T.T.L.V.8.) a - = % & + R.R.R.R.R.R.R.R.R.R.R.R.R.R.R.R.R.R.",
"R.R.R.R.R.R.R.R.R.R.R.R.R.R.R.R.R.o # o - x =.A.T.T.T.T.T.T.T.T.T.T.T.T.I.T.T.T.B...h = % * o R.R.R.R.R.R.R.R.R.R.R.R.R.R.R.R.R.",
"R.R.R.R.R.R.R.R.R.R.R.R.R.R.R.  o o # q } A.T.T.T.T.T.T.T.T.T.T.T.T.T.T.T.T.T.T.T.T.B.( 7 = # o R.R.R.R.R.R.R.R.R.R.R.R.R.R.R.R.",
"R.R.R.R.R.R.R.R.R.R.R.R.R.R.  + % - M j.Y.T.T.T.T.T.T.T.T.T.T.T.T.T.T.T.T.T.T.T.T.T.T.Y.8.h # # + R.R.R.R.R.R.R.R.R.R.R.R.R.R.R.",
"R.R.R.R.R.R.R.R.R.R.R.R.R.. o # ; E A.T.I.I.T.T.T.T.T.T.T.T.T.T.T.T.T.T.T.T.T.T.T.I.T.I.T.x.C $ = & R.R.R.R.R.R.R.R.R.R.R.R.R.R.",
"R.R.R.R.R.R.R.R.R.R.R.R.R.+ & ; / J.T.T.T.T.T.T.T.T.T.T.T.T.T.T.T.T.T.T.T.T.T.T.T.T.T.T.T.T.A.H $ = = R.R.R.R.R.R.R.R.R.R.R.R.R.",
"R.R.R.R.R.R.R.R.R.R.R.R.+ + - / J.T.I.T.T.T.T.T.T.T.T.T.T.T.T.T.T.T.T.T.T.T.T.T.T.T.T.T.T.T.T.V.H + = + R.R.R.R.R.R.R.R.R.R.R.R.",
"R.R.R.R.R.R.R.R.R.R.R.+ @ = H F.T.T.T.T.T.T.T.T.T.T.T.T.T.T.T.T.T.T.T.T.T.T.T.T.T.T.T.T.T.T.T.T.m.j & = & R.R.R.R.R.R.R.R.R.R.R.",
"R.R.R.R.R.R.R.R.R.R.X & & d m.T.T.T.S.5.2.2.2.2.2.2.2.2.1.5.2.2.2.2.2.2.2.1.2.2.2.2.2.2.7.K.T.T.T.g.9 & & R.R.R.R.R.R.R.R.R.R.R.",
"R.R.R.R.R.R.R.R.R.R.& & 1 1.Y.T.T.T.f.4 ; > > > , ; ; - ; ; ; ; - - , - - > > ; < ; ; - a M.T.T.T.T.} - = % R.R.R.R.R.R.R.R.R.R.",
"R.R.R.R.R.R.R.R.R.+ & = I K.T.T.T.T.f.< & * % % o o % % % % % % % % % % % % % % % & & & q M.T.T.T.T.D.M & & & R.R.R.R.R.R.R.R.R.",
"R.R.R.R.R.R.R.R.R.& & q l.T.T.T.T.T.f.< @ 3 z n M m b Z v b Z b Z m v c m M c b b k - % q M.T.T.T.T.T.1.< & & R.R.R.R.R.R.R.R.R.",
"R.R.R.R.R.R.R.R.O & + E U.T.T.T.T.T.8.< o s B.Y.U.U.P.U.U.U.Y.P.P.U.U.U.U.U.U.Y.U.k.6 % e M.T.T.T.Y.T.H.c + & R.R.R.R.R.R.R.R.R.",
"R.R.R.R.R.R.R.R.+ + 4 g.T.T.T.T.T.T.f.< + s Z.Y.P.P.P.P.P.P.P.P.Y.Y.Y.P.Y.P.P.P.P.j.7 % q M.T.T.T.T.T.T.*.- & & R.R.R.R.R.R.R.R.",
"R.R.R.R.R.R.R.R.+ + b J.T.T.T.T.T.T.r.< & 1 c V V V V F F F G V V F V A F F F F F x ; % q M.T.T.T.T.T.T.M.y % = R.R.R.R.R.R.R.R.",
"R.R.R.R.R.R.R.o = = ( Y.T.T.T.T.T.T.8.; & & o o + + + & % % % % o % % % : & % % % + = % q m.T.T.T.T.T.T.P.C o * R.R.R.R.R.R.R.R.",
"R.R.R.R.R.R.R.= = > ;.T.T.T.T.T.T.T.f.< = = - - = & & = $ = = * = = - - & & & & $ $ = # e m.T.T.T.T.T.T.I._ # @ = R.R.R.R.R.R.R.",
"R.R.R.R.R.R.R.o o 9 x.T.T.T.T.T.T.T.Z.&.| | ..@.A & & h  . .f o & K | _ 2 & 1 / | |  . .*.J.T.T.T.T.T.T.T.;.- # $ R.R.R.R.R.R.R.",
"R.R.R.R.R.R.R.* % s F.T.T.T.T.T.T.T.Y.T.T.T.T.T.} = & P Y.U.H o - -.T.Z.a & 2 l.T.T.T.T.T.I.T.T.T.T.T.T.I.j.6 # # R.R.R.R.R.R.R.",
"R.R.R.R.R.R.R.* o c J.T.T.T.T.T.T.T.I.I.I.I.I.T.' + & K Y.T.H o $ *.T.Z.a % 2 x.T.T.T.I.I.T.T.T.T.T.T.T.T.Z.q + # R.R.R.R.R.R.R.",
"R.R.R.R.R.R.R.o + M K.Y.T.Y.Y.I.T.Y.T.Y.Y.Y.T.Y._ & & P T.P.H % : -.T.Z.a % 2 j.T.Y.Y.T.Y.Y.T.Y.Y.Y.P.T.Y.A.p & - R.R.R.R.R.R.R.",
"R.R.R.R.R.R.R.= + Z C.H.H.H.H.H.H.H.H.S.F.G.G.J.) & & K Y.Y.H % : -.T.Z.y % 6 8.G.G.J.J.D.D.J.S.F.J.S.G.D.N.u * : R.R.R.R.R.R.R.",
"R.R.R.R.R.R.R.o + S L.T.T.Y.T.I.T.T.Y.T.T.T.T.T.' & & L T.P.H % : -.T.V.y % 6 k.T.T.T.Y.Y.T.T.I.I.T.T.T.T.C.p # : R.R.R.R.R.R.R.",
"R.R.R.R.R.R.R.& + h g.j.j.j.j.l.j.j.l.l.h.l.j.j.E & + K Y.I.H % - -.T.Z.y & 2 %.l.j.l.l.j.j.j.j.j.j.j.j.z.5.9 + + R.R.R.R.R.R.R.",
"R.R.R.R.R.R.R.# # 1 x b M M b b c M B b b b B B y : & Y T.P.H % = -.T.Z.a & ; h N M b M M M M M M M c M M h $ = = R.R.R.R.R.R.R.",
"R.R.R.R.R.R.R.+ + 7 g.J.F.F.F.F.F.F.F.F.G.F.G.G.) = & P T.Y.K % : -.T.Z.a + 2 8.G.F.F.F.F.A.D.H.F.F.F.F.F.@.$ + = R.R.R.R.R.R.R.",
"R.R.R.R.R.R.R.+ = , ) 2.2.5.5.2.5.5.5.5.2.2.2.5.K & + P Y.Y.H + - -.T.V.y X 2 } 2.2.2.5.5.5.5.5.2.5.2.5.6.L = = = R.R.R.R.R.R.R.",
"R.R.R.R.R.R.R.o = = y A S S S S F F A A F A S S u # + S A.U.H + = -.T.v.0 % > z F F S F A A S S S S G A S 7 % * R.R.R.R.R.R.R.R.",
"R.R.R.R.R.R.R.R.# = l t.p.u.p.p.a.u.a.a.p.p.u.p.T # # Z c.b.V X = +.m.0.0 % 2 :.a.p.i.p.i.a.p.u.p.p.p.a.9.t & & R.R.R.R.R.R.R.R.",
"R.R.R.R.R.R.R.R.+ + 5 :.w.q.w.w.q.w.w.e.w.q.w.w.R & & Z d.p.l % : [ v.q.t & 1 #.w.q.q.e.q.w.q.y.w.w.w.u.^ ; + + R.R.R.R.R.R.R.R.",
"R.R.R.R.R.R.R.R.+ & : S q.q.9.q.q.q.0.0.q.0.0.q.K - & Z a.d.v % = X.v.e.w + 2 o.0.0.0.q.q.q.q.q.q.0.q.3.g & & R.R.R.R.R.R.R.R.R.",
"R.R.R.R.R.R.R.R.R.& & 8 <.d.d.y.p.n.s.v.n.s.a.v.R & & A a.a.Z % - [ n.e.w & 5 :.c.a.s.v.s.0.,.u.d.d.d.O., = + R.R.R.R.R.R.R.R.R.",
"R.R.R.R.R.R.R.R.R.o = = D ,.Q k l #.v.v.v.v.c.s.W : & Z s.a.Z % - [ n.0.w % 5 >.c.k.c.i.[ y 3 g Q :.9.l + # o R.R.R.R.R.R.R.R.R.",
"R.R.R.R.R.R.R.R.R.R.+ = , 5 = & & 7 W t.v.d.v.d.W : & A s.a.v % - [ n.e.w # 5 >.v.c.4.A , & % = * 5 t > & + R.R.R.R.R.R.R.R.R.R.",
"R.R.R.R.R.R.R.R.R.R.. & = = : = : & ; v <.v.v.v.W & & A a.s.z % = [ n.q.w + 5 ,.i.` y = = : = * * = * = & R.R.R.R.R.R.R.R.R.R.R.",
"R.R.R.R.R.R.R.R.R.R.R.o = = = : & & & = r ` p.n.W = = Z s.a.z * = [ d.q.w * 5 X.J , = = = = : : = = = = + R.R.R.R.R.R.R.R.R.R.R.",
"R.R.R.R.R.R.R.R.R.R.R.R.= = = = : : = & & ; A 0.~ : % A s.p.z @ - [ n.q.0 o = 7 - = = = = = : = = = # o R.R.R.R.R.R.R.R.R.R.R.R.",
"R.R.R.R.R.R.R.R.R.R.R.R.R.+ = = = = = = = = # i l : * Z s.a.z * - X.n.0.t o = + = = = = = & = = = # @ R.R.R.R.R.R.R.R.R.R.R.R.R.",
"R.R.R.R.R.R.R.R.R.R.R.R.R.R.# = = = = = = = = # : : * A a.p.z * = [ n.q.t = = = = = = = = - & & = # R.R.R.R.R.R.R.R.R.R.R.R.R.R.",
"R.R.R.R.R.R.R.R.R.R.R.R.R.R.R.+ = # = = = : : * = & * Z a.s.m % - X.n.e.t o * = = = = = = = $ + + R.R.R.R.R.R.R.R.R.R.R.R.R.R.R.",
"R.R.R.R.R.R.R.R.R.R.R.R.R.R.R.R.# # = = * = * = : = & i Q ~ t o = Z ~ T 5 = = # + = = = # + + + R.R.R.R.R.R.R.R.R.R.R.R.R.R.R.R.",
"R.R.R.R.R.R.R.R.R.R.R.R.R.R.R.R.R.o # # = = = = = = = = = = = = = = = : = = = = & = = # # + O R.R.R.R.R.R.R.R.R.R.R.R.R.R.R.R.R.",
"R.R.R.R.R.R.R.R.R.R.R.R.R.R.R.R.R.R.. o o = * # = = = = = = = = = = = = # = = & = = # + + R.R.R.R.R.R.R.R.R.R.R.R.R.R.R.R.R.R.R.",
"R.R.R.R.R.R.R.R.R.R.R.R.R.R.R.R.R.R.R.R.o @ # # * # = = = = = = - = = = = = & = = + o . R.R.R.R.R.R.R.R.R.R.R.R.R.R.R.R.R.R.R.R.",
"R.R.R.R.R.R.R.R.R.R.R.R.R.R.R.R.R.R.R.R.R.R.o o @ + = + = # o = # = = # + = = o o R.R.R.R.R.R.R.R.R.R.R.R.R.R.R.R.R.R.R.R.R.R.R.",
"R.R.R.R.R.R.R.R.R.R.R.R.R.R.R.R.R.R.R.R.R.R.R.R.R.o o + # + # # o + + # o o R.R.R.R.R.R.R.R.R.R.R.R.R.R.R.R.R.R.R.R.R.R.R.R.R.R.",
"R.R.R.R.R.R.R.R.R.R.R.R.R.R.R.R.R.R.R.R.R.R.R.R.R.R.R.R.R.R.R.R.R.R.R.R.R.R.R.R.R.R.R.R.R.R.R.R.R.R.R.R.R.R.R.R.R.R.R.R.R.R.R.R.",
"R.R.R.R.R.R.R.R.R.R.R.R.R.R.R.R.R.R.R.R.R.R.R.R.R.R.R.R.R.R.R.R.R.R.R.R.R.R.R.R.R.R.R.R.R.R.R.R.R.R.R.R.R.R.R.R.R.R.R.R.R.R.R.R.",
"R.R.R.R.R.R.R.R.R.R.R.R.R.R.R.R.R.R.R.R.R.R.R.R.R.R.R.R.R.R.R.R.R.R.R.R.R.R.R.R.R.R.R.R.R.R.R.R.R.R.R.R.R.R.R.R.R.R.R.R.R.R.R.R.",
"R.R.R.R.R.R.R.R.R.R.R.R.R.R.R.R.R.R.R.R.R.R.R.R.R.R.R.R.R.R.R.R.R.R.R.R.R.R.R.R.R.R.R.R.R.R.R.R.R.R.R.R.R.R.R.R.R.R.R.R.R.R.R.R.",
"R.R.R.R.R.R.R.R.R.R.R.R.R.R.R.R.R.R.R.R.R.R.R.R.R.R.R.R.R.R.R.R.R.R.R.R.R.R.R.R.R.R.R.R.R.R.R.R.R.R.R.R.R.R.R.R.R.R.R.R.R.R.R.R.",
"R.R.R.R.R.R.R.R.R.R.R.R.R.R.R.R.R.R.R.R.R.R.R.R.R.R.R.R.R.R.R.R.R.R.R.R.R.R.R.R.R.R.R.R.R.R.R.R.R.R.R.R.R.R.R.R.R.R.R.R.R.R.R.R.",
"R.R.R.R.R.R.R.R.R.R.R.R.R.R.R.R.R.R.R.R.R.R.R.R.R.R.R.R.R.R.R.R.R.R.R.R.R.R.R.R.R.R.R.R.R.R.R.R.R.R.R.R.R.R.R.R.R.R.R.R.R.R.R.R."
};
