/* XPM */
static char *telestai128[] = {
/* columns rows colors chars-per-pixel */
"128 111 2 1 ",
"  c #9F9874",
". c None",
/* pixels */
"................................................................................................................................",
"................................................................................................................................",
"................................................................................................................................",
"................................................................................................................................",
"................................................................................................................................",
"................................................................................................................................",
"................................................................................................................................",
"................................................................................................................................",
"................................................................................................................................",
"................................................................................................................................",
"................................................................................................................................",
"................................................................................................................................",
"................................................................................................................................",
"................................................................................................................................",
"..............                                                                                                    ..............",
"..............                                                                                                    ..............",
"..............                                                                                                    ..............",
"..............                                                                                                    ..............",
"..............                                                                                                    ..............",
"..............                                                                                                    ..............",
"..............                                                                                                    ..............",
"..............                                                                                                    ..............",
"................................................................................................................................",
"................................................................................................................................",
"................................................................................................................................",
"................................................................................................................................",
"................................................................................................................................",
"................................................................................................................................",
"...........................                                                                          ...........................",
"...........................                                                                          ...........................",
"...........................                                                                          ...........................",
"...........................                                                                          ...........................",
"...........................                                                                          ...........................",
"...........................                                                                          ...........................",
"...........................                                                                          ...........................",
"...........................                                                                         ............................",
"............................................................        ............................................................",
"............................................................        ............................................................",
"............................................................        ............................................................",
"............................................................        ............................................................",
"............................................................        ............................................................",
"............................................................        ............................................................",
"...............................        ......        .......        ......        ......        ................................",
"...............................        ......        .......        ......        ......        ................................",
"...............................        ......        .......        ......        ......        ................................",
"...............................        ......        .......        ......        ......        ................................",
"...............................        ......        .......        ......        ......        ................................",
"...............................        ......        .......        ......        ......        ................................",
"...............................        ......        .......        ......        ......        ................................",
"...............................        ......        .......        ......        ......        ................................",
"...............................        ......        .......        ......        ......        ................................",
"...............................        ......        .......        ......        ......        ................................",
"...............................        ......        .......        ......        ......        ................................",
"...............................        ......        .......        ......        ......        ................................",
"...............................        ......        .......        ......        ......        ................................",
"...............................        ......        .......        ......        ......        ................................",
"...............................        ......        .......        ......        ......        ................................",
"...............................        ......        .......        ......        ......        ................................",
"...............................        ......        .......        ......        ......        ................................",
"...............................        ......        .......        ......        ......        ................................",
"...............................        ......        .......        ......        ......        ................................",
"...............................        ......        .......        ......        ......        ................................",
"...............................        ......        .......        ......        ......        ................................",
"...............................        ......        .......        ......        ......        ................................",
"...............................        ......        .......        ......        ......        ................................",
"...............................        ......        .......        ......        ......        ................................",
"...............................        ......        .......        ......        ......        ................................",
"...............................        ......        .......        ......        ......        ................................",
"...............................        ......        .......        ......        ......        ................................",
"...............................        ......        .......        ......        ......        ................................",
"...............................        ......        .......        ......        ......        ................................",
"...............................        ......        .......        ......        ......        ................................",
"...............................        ......        .......        ......        ......        ................................",
"...............................        ......        .......        ......        ......        ................................",
"................................      .......        .......        ......        .......       ................................",
".............................................        .......        ......        ..............................................",
".............................................        .......        ......        ..............................................",
".............................................        .......        ......        ..............................................",
".............................................        .......        ......        ..............................................",
".............................................        .......        ......        ..............................................",
".............................................        .......        ......        ..............................................",
".............................................        .......        ......        ..............................................",
".............................................        .......        ......        ..............................................",
".............................................        .......        ......        ..............................................",
".............................................        .......        ......        ..............................................",
".............................................        .......        ......        ..............................................",
".............................................        .......        ......        ..............................................",
"............................................................        ............................................................",
"............................................................        ............................................................",
"............................................................        ............................................................",
"............................................................        ............................................................",
"............................................................        ............................................................",
"............................................................        ............................................................",
"............................................................        ............................................................",
"............................................................        ............................................................",
"............................................................        ............................................................",
"................................................................................................................................",
"................................................................................................................................",
"................................................................................................................................",
"................................................................................................................................",
"................................................................................................................................",
"................................................................................................................................",
"................................................................................................................................",
"................................................................................................................................",
"................................................................................................................................",
"................................................................................................................................",
"................................................................................................................................",
"................................................................................................................................",
"................................................................................................................................",
"................................................................................................................................",
"................................................................................................................................"
};
